<svg version="1" xmlns="http://www.w3.org/2000/svg" width="666.667" height="666.667" viewBox="0 0 500.000000 500.000000"><path d="M232.5.6c-25.9 2.7-50 7.9-69.1 14.9C102.2 38.1 49.9 86.7 22.9 146-13 224.8-5.6 317.9 42.3 388.7c25 36.9 54.3 62.9 94.2 83.4 25 12.9 52 21.5 80 25.6 16.7 2.4 51.5 2.3 68-.1 60.5-9.1 118.2-40.8 155.7-85.6 31.3-37.3 50-79.1 57.5-128.7 2.2-14.9 2.2-51.7 0-66.6C486.8 144.9 450.9 86.1 393 45.3 361.4 23 323.7 8.1 285 2.6 274 1 240.9-.3 232.5.6zm58.7 223.1c.3 124.2.1 118.7 5.7 121.3 1.4.7 6.1 1.5 10.4 1.8l7.7.5v46.6l-4.7.8c-8.6 1.4-49.2 1-55.3-.6-18.9-4.8-29.4-15.8-32-33.6-.6-4.4-1-52.6-1-129.3V109h69l.2 114.7z"/></svg>